<svg xmlns="http://www.w3.org/2000/svg" width="35.098" height="35.098" viewBox="0 0 35.098 35.098"><defs><style>.a{fill:#02add2;}</style></defs><path class="a" d="M13.527,0H2.559A2.562,2.562,0,0,0,0,2.559V9.14A2.562,2.562,0,0,0,2.559,11.7H13.527A2.562,2.562,0,0,0,16.087,9.14V2.559A2.562,2.562,0,0,0,13.527,0Zm0,0"/><path class="a" d="M13.527,213.332H2.559A2.562,2.562,0,0,0,0,215.891v15.356a2.562,2.562,0,0,0,2.559,2.559H13.527a2.562,2.562,0,0,0,2.559-2.559V215.891A2.562,2.562,0,0,0,13.527,213.332Zm0,0" transform="translate(0 -198.708)"/><path class="a" d="M290.86,341.332H279.892a2.562,2.562,0,0,0-2.559,2.559v6.581a2.562,2.562,0,0,0,2.559,2.559H290.86a2.562,2.562,0,0,0,2.559-2.559v-6.581A2.562,2.562,0,0,0,290.86,341.332Zm0,0" transform="translate(-258.321 -317.933)"/><path class="a" d="M290.86,0H279.892a2.562,2.562,0,0,0-2.559,2.559V17.915a2.562,2.562,0,0,0,2.559,2.559H290.86a2.562,2.562,0,0,0,2.559-2.559V2.559A2.562,2.562,0,0,0,290.86,0Zm0,0" transform="translate(-258.321)"/></svg>