<?xml version="1.0"?>
<svg xmlns="http://www.w3.org/2000/svg" xmlns:xlink="http://www.w3.org/1999/xlink" xmlns:svgjs="http://svgjs.com/svgjs" version="1.1" width="512" height="512" x="0" y="0" viewBox="0 0 24 24" style="enable-background:new 0 0 512 512" xml:space="preserve" class=""><g><g xmlns="http://www.w3.org/2000/svg"><path d="m9.25 0h-7.5c-.965 0-1.75.785-1.75 1.75v4.5c0 .965.785 1.75 1.75 1.75h7.5c.965 0 1.75-.785 1.75-1.75v-4.5c0-.965-.785-1.75-1.75-1.75z" fill="#6a64d9" data-original="#000000" style="" class=""/><path d="m9.25 10h-7.5c-.965 0-1.75.785-1.75 1.75v10.5c0 .965.785 1.75 1.75 1.75h7.5c.965 0 1.75-.785 1.75-1.75v-10.5c0-.965-.785-1.75-1.75-1.75z" fill="#6a64d9" data-original="#000000" style="" class=""/><path d="m22.25 16h-7.5c-.965 0-1.75.785-1.75 1.75v4.5c0 .965.785 1.75 1.75 1.75h7.5c.965 0 1.75-.785 1.75-1.75v-4.5c0-.965-.785-1.75-1.75-1.75z" fill="#6a64d9" data-original="#000000" style="" class=""/><path d="m22.25 0h-7.5c-.965 0-1.75.785-1.75 1.75v10.5c0 .965.785 1.75 1.75 1.75h7.5c.965 0 1.75-.785 1.75-1.75v-10.5c0-.965-.785-1.75-1.75-1.75z" fill="#6a64d9" data-original="#000000" style="" class=""/></g></g></svg>
