<svg xmlns="http://www.w3.org/2000/svg" width="32.125" height="30.286" viewBox="0 0 32.125 30.286"><defs><style>.a{fill:#fff;}</style></defs><path class="a" d="M-1968.554,30.286h-10.854a4.794,4.794,0,0,1-4.71-4.863v-.555a8.011,8.011,0,0,1,7.87-8.127h4.532a8.011,8.011,0,0,1,7.871,8.127v.555A4.794,4.794,0,0,1-1968.554,30.286Zm-4.835-8.248a.558.558,0,0,0-.548.566.558.558,0,0,0,.548.566h1.646v1.7a.558.558,0,0,0,.548.566.558.558,0,0,0,.548-.566v-1.7H-1969a.558.558,0,0,0,.548-.566.558.558,0,0,0-.548-.566h-1.645v-1.7a.558.558,0,0,0-.548-.567.558.558,0,0,0-.548.567v1.7Zm12.694,4.307h0a8.337,8.337,0,0,0,.062-1.269c0-.067,0-.135,0-.208a10.155,10.155,0,0,0-4.732-8.6h1.634a5.962,5.962,0,0,1,5.857,6.048v.394a3.81,3.81,0,0,1-.806,2.345,3.619,3.619,0,0,1-2.014,1.293Zm-26.6-.028h0a3.712,3.712,0,0,1-2.7-3.609v-.394a5.962,5.962,0,0,1,5.857-6.048h1.52a10.155,10.155,0,0,0-4.732,8.6c0,.077,0,.149,0,.218a8.4,8.4,0,0,0,.057,1.23Zm13.334-11.207a5.306,5.306,0,0,1-5.247-3.681,16.77,16.77,0,0,1-.812-5.915c0-3.452,2.265-5.513,6.059-5.513s6.06,2.061,6.06,5.513a16.763,16.763,0,0,1-.812,5.915A5.306,5.306,0,0,1-1973.964,15.109Zm8.635-.277a4.485,4.485,0,0,1-1.694-.31c2.052-2.44,2.329-5.923,2.329-9.009a8.734,8.734,0,0,0-.212-1.951c2.6.147,4.147,1.71,4.147,4.178a12.168,12.168,0,0,1-.6,4.305A4.019,4.019,0,0,1-1965.329,14.832Zm-17.191,0a4.02,4.02,0,0,1-3.975-2.787,12.167,12.167,0,0,1-.6-4.305,3.958,3.958,0,0,1,4.041-4.171,8.746,8.746,0,0,0-.211,1.945c0,3.1.28,6.6,2.355,9.041A4.537,4.537,0,0,1-1982.52,14.832Z" transform="translate(1990)"/></svg>